<svg xmlns="http://www.w3.org/2000/svg" width="15.174" height="17.85" viewBox="0 0 15.174 17.85">
  <g id="location" transform="translate(-0.272)">
    <g id="Group_9" data-name="Group 9" transform="translate(0.272 -5.15)">
      <path id="Path_18" data-name="Path 18" d="M13.879,357.2c-.215-.181-.485-.06-.6.268a.891.891,0,0,0,.176.923,1.977,1.977,0,0,1,.833,1.352c0,.507-.47,1.293-1.79,1.979a10.886,10.886,0,0,1-4.907,1.05,10.886,10.886,0,0,1-4.907-1.05c-1.32-.685-1.79-1.471-1.79-1.979a1.978,1.978,0,0,1,.833-1.352.891.891,0,0,0,.176-.922c-.118-.329-.388-.449-.6-.268A3.335,3.335,0,0,0,0,359.742c0,.923.415,2.238,2.393,3.265a11.515,11.515,0,0,0,5.193,1.122,11.515,11.515,0,0,0,5.193-1.122c1.978-1.027,2.393-2.343,2.393-3.265A3.335,3.335,0,0,0,13.879,357.2Z" transform="translate(0 -341.175)" fill="#bdc9d3"/>
      <path id="Path_19" data-name="Path 19" d="M88.457,347.346a7.769,7.769,0,0,0,7.451,0,3.748,3.748,0,0,0,0-6.46,5.754,5.754,0,0,0-.883-.438q-.256.96-.537,1.977a5.59,5.59,0,0,1,.972.416,1.275,1.275,0,1,1,0,2.549,6.822,6.822,0,0,1-3.109.765,1.031,1.031,0,0,1-.339,0,6.822,6.822,0,0,1-3.109-.765,1.275,1.275,0,1,1,0-2.549,5.588,5.588,0,0,1,.972-.416q-.281-1.017-.537-1.977a5.76,5.76,0,0,0-.883.438,3.748,3.748,0,0,0,0,6.46Z" transform="translate(-84.663 -325.298)" fill="#bdc9d3"/>
    </g>
    <path id="Path_20" data-name="Path 20" d="M121.081,12.666a1.224,1.224,0,0,0,1.052-.59c1.583-2.589,3.469-6,3.469-7.555a4.521,4.521,0,0,0-9.043,0c0,1.553,1.887,4.965,3.469,7.555A1.225,1.225,0,0,0,121.081,12.666Zm-1.817-8.455a1.817,1.817,0,1,1,1.817,1.817A1.819,1.819,0,0,1,119.264,4.211Z" transform="translate(-113.338 0)" fill="#bdc9d3"/>
  </g>
</svg>
